<svg width="1080" height="1080" viewBox="0 0 1080 1080" fill="none" xmlns="http://www.w3.org/2000/svg">
<path d="M311.801 946C283.637 946 257.937 939.311 234.701 925.933C212.169 911.85 193.862 893.544 179.78 871.012C166.402 847.776 159.713 822.076 159.713 793.911V185.557H311.801V786.518C311.801 788.631 312.153 790.391 312.857 791.799C314.266 792.503 316.026 792.855 318.138 792.855H759.617C761.73 792.855 763.138 792.503 763.842 791.799C765.25 790.391 765.954 788.631 765.954 786.518V185.557H920.155V793.911C920.155 822.076 913.114 847.776 899.032 871.012C884.95 893.544 866.291 911.85 843.055 925.933C820.523 939.311 795.527 946 768.067 946H311.801Z" fill="url(#paint0_linear_7_1826)"/>
<defs>
<linearGradient id="paint0_linear_7_1826" x1="102" y1="540.184" x2="978" y2="540.184" gradientUnits="userSpaceOnUse">
<stop stop-color="#EA6B4A"/>
<stop offset="0.5" stop-color="#EA6B4A"/>
<stop offset="0.5" stop-color="#0891B2"/>
<stop offset="1" stop-color="#0891B2"/>
</linearGradient>
</defs>
</svg>
