<svg width="1154" height="196" viewBox="0 0 1154 196" fill="none" xmlns="http://www.w3.org/2000/svg">
<path d="M-0.000102099 195.941V0.000192409H149.133C156.209 0.000192409 162.649 1.81446 168.455 5.443C174.442 8.89011 179.25 13.6072 182.878 19.5943C186.507 25.4 188.321 31.9313 188.321 39.1884V76.7438C188.321 79.1024 188.14 81.3702 187.777 83.5473C187.414 85.543 186.87 87.5387 186.144 89.5344C189.047 93.3444 191.405 97.5172 193.22 102.053C195.034 106.407 195.941 110.852 195.941 115.388V156.753C195.941 164.01 194.127 170.632 190.498 176.619C186.87 182.425 182.062 187.142 176.075 190.771C170.269 194.218 163.738 195.941 156.481 195.941H-0.000102099ZM40.821 156.481H154.576C155.12 156.481 155.483 156.39 155.664 156.209C156.027 155.846 156.209 155.392 156.209 154.848V117.565C156.209 117.202 156.027 116.839 155.664 116.476C155.483 116.114 155.12 115.932 154.576 115.932H40.821C40.2767 115.932 39.8231 116.114 39.4603 116.476C39.2789 116.839 39.1881 117.202 39.1881 117.565V154.848C39.1881 155.392 39.2789 155.846 39.4603 156.209C39.8231 156.39 40.2767 156.481 40.821 156.481ZM40.821 76.4717H146.956C147.319 76.4717 147.682 76.381 148.044 76.1996C148.407 75.8367 148.589 75.4738 148.589 75.111V41.0934C148.589 40.5491 148.407 40.1863 148.044 40.0049C147.682 39.642 147.319 39.4606 146.956 39.4606H40.821C40.2767 39.4606 39.8231 39.642 39.4603 40.0049C39.2789 40.1863 39.1881 40.5491 39.1881 41.0934V75.111C39.1881 75.4738 39.2789 75.8367 39.4603 76.1996C39.8231 76.381 40.2767 76.4717 40.821 76.4717ZM277.864 195.941C270.607 195.941 263.985 194.218 257.998 190.771C252.192 187.142 247.475 182.425 243.846 176.619C240.399 170.632 238.676 164.01 238.676 156.753V39.1884C238.676 31.9313 240.399 25.4 243.846 19.5943C247.475 13.6072 252.192 8.89011 257.998 5.443C263.985 1.81446 270.607 0.000192409 277.864 0.000192409H395.429C402.504 0.000192409 408.945 1.81446 414.751 5.443C420.738 8.89011 425.546 13.6072 429.174 19.5943C432.803 25.4 434.617 31.9313 434.617 39.1884V156.753C434.617 164.01 432.803 170.632 429.174 176.619C425.546 182.425 420.738 187.142 414.751 190.771C408.945 194.218 402.504 195.941 395.429 195.941H277.864ZM279.497 156.481H393.252C393.796 156.481 394.159 156.39 394.34 156.209C394.703 155.846 394.884 155.392 394.884 154.848V41.0934C394.884 40.5491 394.703 40.1863 394.34 40.0049C394.159 39.642 393.796 39.4606 393.252 39.4606H279.497C278.952 39.4606 278.499 39.642 278.136 40.0049C277.955 40.1863 277.864 40.5491 277.864 41.0934V154.848C277.864 155.392 277.955 155.846 278.136 156.209C278.499 156.39 278.952 156.481 279.497 156.481ZM516.837 195.941C509.58 195.941 502.958 194.218 496.971 190.771C491.165 187.142 486.448 182.425 482.82 176.619C479.373 170.632 477.649 164.01 477.649 156.753V0.000192409H516.837V154.848C516.837 155.392 516.928 155.846 517.109 156.209C517.472 156.39 517.926 156.481 518.47 156.481H632.225C632.769 156.481 633.132 156.39 633.314 156.209C633.676 155.846 633.858 155.392 633.858 154.848V0.000192409H673.59V156.753C673.59 164.01 671.776 170.632 668.148 176.619C664.519 182.425 659.711 187.142 653.724 190.771C647.918 194.218 641.478 195.941 634.402 195.941H516.837ZM717.167 195.941V0.000192409H758.804L873.376 136.615V0.000192409H913.108V195.941H871.471L756.355 58.7826V195.941H717.167ZM957.748 195.941V0.000192409H1114.23C1121.49 0.000192409 1128.02 1.81446 1133.82 5.443C1139.81 8.89011 1144.62 13.6072 1148.25 19.5943C1151.87 25.4 1153.69 31.9313 1153.69 39.1884V156.753C1153.69 164.01 1151.87 170.632 1148.25 176.619C1144.62 182.425 1139.81 187.142 1133.82 190.771C1128.02 194.218 1121.49 195.941 1114.23 195.941H957.748ZM998.297 156.481H1112.32C1112.87 156.481 1113.23 156.39 1113.41 156.209C1113.77 155.846 1113.96 155.392 1113.96 154.848V41.0934C1113.96 40.5491 1113.77 40.1863 1113.41 40.0049C1113.23 39.642 1112.87 39.4606 1112.32 39.4606H998.297C997.934 39.4606 997.571 39.642 997.208 40.0049C996.845 40.1863 996.664 40.5491 996.664 41.0934V154.848C996.664 155.392 996.845 155.846 997.208 156.209C997.571 156.39 997.934 156.481 998.297 156.481Z" fill="url(#paint0_linear_7_1407)"/>
<defs>
<linearGradient id="paint0_linear_7_1407" x1="-16.0564" y1="91.4414" x2="1168.94" y2="91.4414" gradientUnits="userSpaceOnUse">
<stop stop-color="#EA6B4A"/>
<stop offset="0.5" stop-color="#EA6B4A"/>
<stop offset="0.5" stop-color="#0891B2"/>
<stop offset="1" stop-color="#0891B2"/>
</linearGradient>
</defs>
</svg>
